<?xml version="1.0" encoding="iso-8859-1"?>
<!-- Generator: Adobe Illustrator 17.1.0, SVG Export Plug-In . SVG Version: 6.00 Build 0)  -->
<!DOCTYPE svg PUBLIC "-//W3C//DTD SVG 1.1//EN" "http://www.w3.org/Graphics/SVG/1.1/DTD/svg11.dtd">
<svg version="1.1" id="Capa_1" xmlns="http://www.w3.org/2000/svg" xmlns:xlink="http://www.w3.org/1999/xlink" x="0px" y="0px"
	 viewBox="0 0 238 238" style="enable-background:new 0 0 238 238;" xml:space="preserve">
<path d="M237.961,6.733C237.578,2.951,234.386,0,230.505,0H230.5H7.5H7.495C3.614,0,0.422,2.951,0.039,6.733
	C0.013,6.985,0,7.241,0,7.5V53v177.5c0,4.142,3.357,7.5,7.5,7.5h223c4.143,0,7.5-3.358,7.5-7.5V53V7.5
	C238,7.241,237.987,6.985,237.961,6.733z M116.721,18c6.755,0,12.25,5.495,12.25,12.25s-5.495,12.25-12.25,12.25
	s-12.25-5.495-12.25-12.25S109.966,18,116.721,18z M72.235,18c6.755,0,12.25,5.495,12.25,12.25S78.99,42.5,72.235,42.5
	s-12.25-5.495-12.25-12.25S65.48,18,72.235,18z M27.749,18c6.755,0,12.25,5.495,12.25,12.25S34.504,42.5,27.749,42.5
	s-12.25-5.495-12.25-12.25S20.994,18,27.749,18z M223,223H15V60.5h208V223z M119.083,87.027c-30.648,0-55.583,24.935-55.583,55.583
	c0,30.648,24.935,55.583,55.583,55.583s55.583-24.935,55.583-55.583C174.666,111.962,149.731,87.027,119.083,87.027z
	 M149.924,131.879l-27.766,34.134c-1.479,1.817-3.639,2.768-5.823,2.768c-1.549,0-3.108-0.478-4.445-1.464l-22.28-16.425
	c-3.334-2.458-4.045-7.153-1.587-10.487c2.459-3.333,7.154-4.043,10.487-1.586L115.034,151l23.253-28.586
	c2.613-3.212,7.338-3.699,10.551-1.085C152.052,123.941,152.537,128.666,149.924,131.879z"/>
<g>
</g>
<g>
</g>
<g>
</g>
<g>
</g>
<g>
</g>
<g>
</g>
<g>
</g>
<g>
</g>
<g>
</g>
<g>
</g>
<g>
</g>
<g>
</g>
<g>
</g>
<g>
</g>
<g>
</g>
</svg>
